# xmcd
#
# Track frame offsets:
#	150
#	9728
#	23123
#	35416
#	55130
#	69778
#	84886
#	100188
#	114136
#	124939
#	136580
#	152899
#
# Disc length: 2301 seconds
#
# Revision: 1
# Processed by: cddbd v1.5.2PL0 Copyright (c) Steve Scherf et al.
# Submitted via: audiograbber 1.83.01
#
DISCID=8708fb0c
DTITLE=Scroggins, Jeff And Colorado - Ramblin Feels Good
DYEAR=2015
DGENRE=Bluegrass
TTITLE0=I'm A Memory
TTITLE1=Sometimes Dig For Taters
TTITLE2=Wall Around Yout Heart
TTITLE3=She's Got A Single Thing In Mind
TTITLE4=Carefree Highway
TTITLE5=Ramblin Feels Good
TTITLE6=Dismal Nitch
TTITLE7=Love Please Come Home
TTITLE8=Galveston
TTITLE9=Down The Road Of Life
TTITLE10=Night Is Fallin In My Heart
TTITLE11=Lemonade In The Shade
EXTD=
EXTT0=
EXTT1=
EXTT2=
EXTT3=
EXTT4=
EXTT5=
EXTT6=
EXTT7=
EXTT8=
EXTT9=
EXTT10=
EXTT11=
PLAYORDER=
